<svg version="1.1" viewBox="0.0 0.0 560.0 560.0" fill="none" stroke="none" stroke-linecap="square" stroke-miterlimit="10" xmlns:xlink="http://www.w3.org/1999/xlink" xmlns="http://www.w3.org/2000/svg"><clipPath id="p.0"><path d="m0 0l560.0 0l0 560.0l-560.0 0l0 -560.0z" clip-rule="nonzero"/></clipPath><g clip-path="url(#p.0)"><path fill="#000000" fill-opacity="0.0" d="m0 0l560.0 0l0 560.0l-560.0 0z" fill-rule="evenodd"/><g filter="url(#shadowFilter-p.1)"><use xlink:href="#p.1" transform="matrix(1.0 0.0 0.0 1.0 0.0 2.0)"/></g><defs><filter id="shadowFilter-p.1" filterUnits="userSpaceOnUse"><feGaussianBlur in="SourceAlpha" stdDeviation="2.0" result="blur"/><feComponentTransfer in="blur" color-interpolation-filters="sRGB"><feFuncR type="linear" slope="0" intercept="0.0"/><feFuncG type="linear" slope="0" intercept="0.0"/><feFuncB type="linear" slope="0" intercept="0.0"/><feFuncA type="linear" slope="0.5" intercept="0"/></feComponentTransfer></filter></defs><g id="p.1"><path fill="#009ee3" d="m12.458068 281.62247l0 0c0 -148.15146 119.49414 -268.25195 266.89764 -268.25195l0 0c70.785645 0 138.67212 28.26218 188.72513 78.56918c50.05301 50.307007 78.172516 118.53793 78.172516 189.68277l0 0c0 148.15149 -119.49414 268.25198 -266.89764 268.25198l0 0c-147.4035 0 -266.89764 -120.100494 -266.89764 -268.25198z" fill-rule="evenodd"/></g><path fill="#004f71" d="m137.86952 273.47244l0 113.95883l40.433853 0l0 -113.95883zm80.86963 -97.68036l0 211.63919l40.435776 0l0 -211.63919zm80.87157 32.560776l0 179.07841l40.433838 0l0 -179.07841zm80.86963 32.558823l0 146.51959l40.43576 0l0 -146.51959z" fill-rule="evenodd"/></g></svg>