<svg version="1.1" viewBox="0.0 0.0 280.0 280.0" fill="none" stroke="none" stroke-linecap="square" stroke-miterlimit="10" xmlns:xlink="http://www.w3.org/1999/xlink" xmlns="http://www.w3.org/2000/svg"><clipPath id="p.0"><path d="m0 0l280.0 0l0 280.0l-280.0 0l0 -280.0z" clip-rule="nonzero"/></clipPath><g clip-path="url(#p.0)"><path fill="#000000" fill-opacity="0.0" d="m0 0l280.0 0l0 280.0l-280.0 0z" fill-rule="evenodd"/><g filter="url(#shadowFilter-p.1)"><use xlink:href="#p.1" transform="matrix(1.0 0.0 0.0 1.0 0.0 4.0)"/></g><defs><filter id="shadowFilter-p.1" filterUnits="userSpaceOnUse"><feGaussianBlur in="SourceAlpha" stdDeviation="2.0" result="blur"/><feComponentTransfer in="blur" color-interpolation-filters="sRGB"><feFuncR type="linear" slope="0" intercept="0.0"/><feFuncG type="linear" slope="0" intercept="0.0"/><feFuncB type="linear" slope="0" intercept="0.0"/><feFuncA type="linear" slope="0.5" intercept="0"/></feComponentTransfer></filter></defs><g id="p.1"><path fill="#0076aa" d="m6.229034 140.81123l0 0c0 -74.07573 59.74707 -134.12598 133.44882 -134.12598l0 0c35.392822 0 69.33606 14.13109 94.362564 39.28459c25.026505 25.153503 39.086258 59.268967 39.086258 94.841385l0 0c0 74.075745 -59.74707 134.12599 -133.44882 134.12599l0 0c-73.70175 0 -133.44882 -60.050247 -133.44882 -134.12599z" fill-rule="evenodd"/><path stroke="#0076aa" stroke-width="1.0" stroke-linejoin="round" stroke-linecap="butt" d="m6.229034 140.81123l0 0c0 -74.07573 59.74707 -134.12598 133.44882 -134.12598l0 0c35.392822 0 69.33606 14.13109 94.362564 39.28459c25.026505 25.153503 39.086258 59.268967 39.086258 94.841385l0 0c0 74.075745 -59.74707 134.12599 -133.44882 134.12599l0 0c-73.70175 0 -133.44882 -60.050247 -133.44882 -134.12599z" fill-rule="evenodd"/></g><path fill="#8eddff" d="m203.80975 54.900646l1.4698944 0.18387222l2.2032166 2.0204277l0.18386841 1.6526756l-0.18386841 1.6526756l-2.2032166 2.019333l-1.4698944 0.18387222l-1.6526794 -0.18387222l-2.2032013 -2.019333l-0.18386841 -1.6526756l0.18386841 -1.6526756l2.2032013 -2.2043zm1.1021576 9.18166l2.2032013 1.10215l1.4687958 1.8354568l0.73550415 2.2043l0 1.2849274l-0.36775208 0.7344055l-3.1214752 0.9182739l-4.223633 0l-3.1214752 -0.9182739l-0.18388367 -0.7344055l-0.18386841 -1.4688034l0.7344055 -2.2032013l1.4698944 -1.6526794l2.2032013 -1.10215zm-128.72276 2.020424l1.4688034 0.18278503l2.2043 2.020424l0.1827774 1.6526718l-0.1827774 1.6526794l-2.2043 2.019333l-1.4688034 0.18387604l-1.6526718 -0.18387604l-2.203209 -2.019333l-0.18387604 -1.6526794l0.18387604 -1.4687958l2.019333 -2.2043l1.8365479 -0.18278503zm1.10215 8.997787l2.203209 1.101059l1.4688034 1.8365479l0.7343979 2.203209l0 1.2860184l-0.36665344 0.7344055l-3.1214828 0.9182739l-4.223625 0l-3.1214828 -0.9182739l-0.18387604 -0.7344055l-0.18386841 -1.2860184l0.9182739 -2.203209l1.4688034 -1.8365479l2.020424 -1.101059zm126.518456 84.10047l1.6526794 0.36775208l2.387085 2.2032013l0.18386841 1.8365479l-0.18386841 1.8354645l-2.387085 2.2043l-1.6526794 0.36665344l-1.8354492 -0.36665344l-2.387085 -2.2043l-0.18386841 -1.8354645l0.18386841 -1.8365479l2.387085 -2.2032013l1.8354492 -0.36775208zm0.18388367 9.916061l1.2860107 0.18388367l2.387085 1.1010437l1.6526794 2.0204315l0.7344055 2.387085l0 1.4687958l-0.36775208 0.9182739l-3.6720123 1.1021576l-4.5913696 0l-3.488144 -1.1021576l-0.36775208 -0.9182739l0 -1.4687958l0.9182892 -2.387085l1.6526642 -2.0204315l2.387085 -1.1010437l1.468811 -0.18388367zm-129.08942 21.117065l1.8365479 0.18386841l2.387085 2.387085l0.1827774 1.8365479l-0.1827774 1.8354492l-2.387085 2.2043l-1.8365479 0.36665344l-1.8365479 -0.36665344l-2.203209 -2.2043l-0.18387604 -1.8354492l0.18387604 -1.8365479l2.203209 -2.387085l1.8365479 -0.18386841zm-0.18387604 10.09993l1.4688034 0.18278503l2.3870773 0.9182739l1.6526794 2.0204163l0.9182739 2.387085l0 1.468811l-0.55052185 0.9182739l-3.489235 0.9182739l-4.7741547 0l-3.4892273 -0.9182739l-0.36665344 -0.9182739l0 -1.468811l0.9182739 -2.387085l1.8354568 -1.8365479l2.2043 -1.1021423l1.2849274 -0.18278503zm73.08335 21.851456l1.8365631 0.18278503l2.5709534 2.7548218l0.36665344 1.8365479l-0.36665344 2.019333l-2.5709534 2.5709534l-1.8365631 0.18388367l-2.019333 -0.18388367l-2.570938 -2.7537231l-0.36775208 -1.8365631l0.36775208 -2.0204163l2.570938 -2.5709534l2.019333 -0.18278503zm0 11.384872l1.468811 0.18276978l2.5709534 1.286026l1.8365479 2.2032013l0.9182739 2.5709534l0 1.6526794l0 0.18388367l-0.36775208 1.1010437l-3.8558807 1.1021576l-5.1419067 -0.18386841l-3.671997 -1.101059l-0.5505371 -1.1021576l0 -1.6526794l0.91719055 -2.5709534l1.6526794 -2.2032013l2.3870697 -1.286026l1.4698944 -0.18276978zm12.670898 -189.87073l-1.286026 0.18387222l-1.101059 0.18387604l-2.0204163 1.4688034l-1.2849426 1.8365517l-0.36773682 2.3870773l0.18386841 1.1010551l0.55052185 1.6526756l2.387085 2.3870811l1.6526794 0.5516205l0.18386841 9.548313l-1.2849274 0.36665344l-2.7548218 1.6526794l-0.9182739 1.286026l-19.280502 -11.200993l0.18386841 -2.2043l-2.0204315 -3.6720085l-2.2032013 -0.9182739l-2.2043 -0.36774826l-3.4881287 2.204296l-1.10215 2.019333l-0.18387604 2.2043l2.020424 3.4881325l2.0193253 1.10215l1.4699097 0.36665344l2.9376068 -0.7344017l0.9182739 -0.9182739l19.280502 11.202087l-0.36665344 1.8354568l0.55052185 4.039757l0.9182739 1.6526718l-32.13526 29.932068l-1.2849274 -0.91828156l-2.5709534 -0.9182739l-2.9376068 0l-2.7548294 0.9182739l-1.2849274 0.91828156l-23.688011 -23.871887l1.6526794 -2.5709534l1.6526794 -5.5085526l-0.5516205 -5.692436l-2.5709534 -5.1419067l-2.019333 -2.019329l-2.5709534 -1.6526794l-5.50856 -1.6526756l-5.6924286 0.36665344l-5.1419067 2.5709534l-2.019333 2.2032013l-1.8365517 2.5709534l-1.6526756 5.509659l0.55052567 5.5085526l2.5709572 5.1408157l2.2032013 2.2043l2.020424 1.4688034l4.9580307 1.8365479l4.9580307 -0.18387604l4.9580307 -1.6526718l2.203209 -1.6526794l24.054665 23.504135l-0.91828156 1.4688034l-0.7343979 3.4892273l0.18387604 2.019333l-20.198784 6.6107025l-0.7343979 -1.1010513l-2.0204315 -1.4688034l-2.3870773 -0.7354965l-2.5709534 0.36775208l-1.1010513 0.55052185l-1.286026 0.91828156l-1.4688034 2.020424l-0.5505295 2.3870773l0.36665344 2.5709534l0.5516281 1.101059l0.7343979 1.1021423l2.019333 1.6526794l2.3870773 0.55052185l2.5709534 -0.36665344l1.286026 -0.5516205l1.4688034 -1.2849274l1.6526718 -3.3053513l-0.18386841 -2.203209l20.198776 -6.6107025l1.286026 2.0193253l3.6720047 2.020424l2.203209 0.36665344l-0.5505295 12.670898l-1.101059 0.36665344l-1.8365479 1.286026l-1.286026 2.9375916l0.18387604 2.2032166l0.36774445 1.286026l1.284935 1.6526642l2.9376068 1.468811l2.2043 -0.18386841l1.2849274 -0.36665344l1.6526718 -1.286026l1.4688034 -2.9376068l-0.1827774 -2.387085l-0.5516205 -1.4687958l-2.203209 -2.2043l-1.4687958 -0.36665344l0.55052185 -12.853676l1.8365555 -0.7343979l2.9376068 -2.388176l0.9182739 -1.8354568l28.462166 6.426834l0 0.36665344l0.18386841 1.286026l0.9182739 2.387085l1.8354645 1.8365479l2.3881683 0.9171753l1.2849274 0.18386841l0.7344055 0l0.55052185 -0.18386841l4.223633 10.467682l-0.9182739 0.91719055l-1.4687958 2.3881683l-0.5505371 2.387085l0.5505371 2.3870697l0.9182739 1.101059l-7.345108 9.181656l-1.8365631 -0.73439026l-3.4881287 0.55052185l-1.4698944 1.1021423l-0.7344055 1.8365631l0.5516205 3.4881287l1.101059 1.286026l-9.548309 17.443954l-1.468811 -0.36665344l-3.1214752 0.55052185l-1.6526794 0.55052185l-22.953606 -23.320251l0.9182739 -1.468811l0.9182739 -3.3053436l-0.36774445 -3.305359l-1.6526794 -2.9376068l-1.4688034 -1.286026l-1.4688034 -0.9182739l-3.3053513 -0.9182739l-3.305359 0.5516205l-2.9386978 1.6526794l-1.101059 1.2849274l-0.9182739 1.286026l-0.7343979 2.9376068l0 2.9376068l1.1010513 2.7548218l0.9182739 1.1021576l-16.893425 23.504135l-0.7343979 -0.36775208l-0.7344055 -0.18388367l-0.7343979 -0.18276978l-1.6526794 -0.18388367l-3.1214752 -0.18386841l-5.325783 1.468811l-4.5902863 3.4892273l-2.7548256 4.958023l-0.55052567 3.1214905l-0.18387604 2.9376068l1.6526794 5.5096436l3.3053513 4.406418l5.1419067 2.9386902l2.9376068 0.36665344l2.9386978 0.18388367l5.50856 -1.468811l4.40641 -3.4892273l2.9387054 -4.958023l0.55052185 -3.1214905l0.18387604 -2.0204163l-0.7343979 -4.222534l-1.8365555 -3.673111l-2.7548294 -2.9376068l-1.8354568 -1.286026l16.709557 -22.9525l1.4688034 0.73439026l1.6526718 0.36665344l3.1214828 0l2.5709534 -0.73439026l1.10215 -0.9182892l22.953606 23.688019l-0.9182739 2.0204163l0 4.222534l0.9182739 2.0204315l-12.670891 12.853668l-1.8354568 -0.9182739l-3.8569717 0.7344055l-1.6526794 1.2860107l-0.9182739 2.019333l0.7354965 3.8569794l1.4688034 1.468811l1.8354568 0.9182739l3.8569717 -0.5516205l1.6526794 -1.468811l0.7343979 -1.1021423l0.18387604 -2.7537384l-0.5516205 -1.4687958l12.670891 -13.037552l1.6526794 0.9182739l2.019333 0.18278503l3.4892273 15.057968l-3.8558807 1.6526794l-5.692444 5.140808l-3.3053436 6.794586l-0.36775208 7.71286l1.1021423 3.8558807l1.468811 3.8558807l5.3246765 5.6924286l6.794586 3.305359l7.71286 0.36775208l3.8558807 -1.1021576l3.6720123 -1.4687958l5.876297 -5.3257904l3.305359 -6.7934875l0.36775208 -7.71286l-1.1021576 -3.8558807l-1.4687958 -3.4892273l-4.591385 -5.3246765l-6.059082 -3.4892273l-7.1612396 -1.1021576l-3.6730957 0.5516205l-3.1214752 -14.690216l1.6526642 -0.9182739l2.387085 -2.754837l0.55052185 -1.6526642l10.4665985 -0.5505371l0.7354889 1.468811l3.1214905 1.6526794l1.6526794 -0.18388367l1.8354492 -0.7344055l1.4698944 -3.1214752l-0.36775208 -1.6526794l-0.73439026 -1.6526794l-2.9376068 -1.6526642l-1.6526794 0.36773682l-1.1021576 0.36665344l-1.4687958 1.4699097l-0.5516205 1.1010437l-10.282715 0.5516205l-0.18388367 -0.9182739l-1.2849274 -2.2043l-1.1021423 -0.73439026l10.09993 -17.443954l2.019333 0.18276978l2.9387054 -2.019333l0.55052185 -1.8365479l0.18388367 -1.6526794l-0.5505371 -1.4687958l7.7117615 -8.813919l2.2032166 0.9182739l4.407501 -0.36773682l1.6526794 -1.468811l15.60849 9.916061l-1.286026 2.9376068l-0.36665344 6.0601807l1.8354645 5.692444l3.856964 4.7741547l2.5709534 1.6526794l2.9376068 1.2849274l6.0601807 0.36773682l5.692444 -1.8365479l4.7741547 -3.8558807l1.8354492 -2.5709534l1.1021576 -2.9376068l0.55052185 -6.244049l-1.8354492 -5.6924286l-3.8569794 -4.77417l-2.7537384 -1.6526642l-2.5709534 -1.2849426l-5.50856 -0.73439026l-5.1419067 1.2849274l-4.590271 2.9376068l-1.8365631 2.0204163l-15.60849 -9.548309l0.36775208 -1.286026l0 -2.7537231l-1.1021576 -2.2043l-1.8365479 -2.019333l-1.101059 -0.5505371l-2.0204163 -0.5516205l-2.2032013 0.18388367l-4.223633 -10.650467l1.1021423 -0.7344055l1.468811 -2.2032013l0.36665344 -2.387085l-0.5505371 -2.5709534l-0.55052185 -1.2860184l-0.9182739 -0.9171829l-2.2032013 -1.4698944l-2.387085 -0.5505295l-2.5709534 0.5505295l-1.1021423 0.5516205l-1.2849426 1.1010513l-1.2860107 1.6526794l-28.278297 -6.61071l0 -0.9171829l-0.18387604 -2.5709457l-1.1010513 -2.2043l32.501915 -29.93097l2.387085 1.4688034l4.039749 0.36774445l2.5709534 -0.5505295l1.101059 -0.7343979l15.60849 15.0568695l-0.55052185 1.10215l-0.36775208 2.5698624l0.36775208 2.2043l1.468811 2.019333l0.9182739 0.5516205l1.1010437 0.7343979l2.387085 0.36665344l2.387085 -0.5505295l2.0204163 -1.2849274l0.5505371 -1.10215l0.73439026 -1.10215l0.36775208 -2.3870773l-0.55052185 -2.3870773l-1.286026 -1.8365479l-1.101059 -0.7344055l-1.4698944 -0.7343979l-3.6720123 0l-1.6526794 0.7343979l-15.60849 -15.056877l0.7344055 -1.1021423l0.9182739 -2.7537384l0.18386841 -1.4698944l19.648254 -3.8558807l1.4687958 2.7548218l4.223633 4.222542l5.324692 2.2042923l6.0601807 0l2.9376068 -0.9182739l2.7548218 -1.4688034l4.223633 -4.223625l2.2032013 -5.325783l0 -6.059086l-0.9182739 -2.9376068l-1.4687958 -2.7548256l-4.223633 -4.223629l-5.3257904 -2.203205l-6.059082 0l-2.9376068 0.9182739l-2.3881683 1.2849312l-4.0397644 3.6730995l-2.3870697 4.5902863l-0.55052185 5.1419067l0.36773682 2.7537308l-18.913849 3.6731033l-1.1021423 -2.3870773l-4.0397644 -3.305359l-2.3870697 -0.5516205l-0.5505371 -9.180569l1.101059 -0.36774826l2.0204315 -1.2849274l1.2849274 -1.8365517l0.36773682 -2.3870773l-0.18386841 -1.10215l-0.36665344 -1.2849312l-1.4698944 -1.8365517l-2.019333 -1.2849274l-2.2032013 -0.36774826z" fill-rule="evenodd"/></g></svg>