<svg version="1.1" viewBox="0.0 0.0 560.0 560.0" fill="none" stroke="none" stroke-linecap="square" stroke-miterlimit="10" xmlns:xlink="http://www.w3.org/1999/xlink" xmlns="http://www.w3.org/2000/svg"><clipPath id="p.0"><path d="m0 0l560.0 0l0 560.0l-560.0 0l0 -560.0z" clip-rule="nonzero"/></clipPath><g clip-path="url(#p.0)"><path fill="#000000" fill-opacity="0.0" d="m0 0l560.0 0l0 560.0l-560.0 0z" fill-rule="evenodd"/><g filter="url(#shadowFilter-p.1)"><use xlink:href="#p.1" transform="matrix(1.0 0.0 0.0 1.0 0.0 2.0)"/></g><defs><filter id="shadowFilter-p.1" filterUnits="userSpaceOnUse"><feGaussianBlur in="SourceAlpha" stdDeviation="2.0" result="blur"/><feComponentTransfer in="blur" color-interpolation-filters="sRGB"><feFuncR type="linear" slope="0" intercept="0.0"/><feFuncG type="linear" slope="0" intercept="0.0"/><feFuncB type="linear" slope="0" intercept="0.0"/><feFuncA type="linear" slope="0.5" intercept="0"/></feComponentTransfer></filter></defs><g id="p.1"><path fill="#ffffff" d="m12.458068 281.62247l0 0c0 -148.15146 119.49414 -268.25195 266.89764 -268.25195l0 0c70.785645 0 138.67212 28.26218 188.72513 78.56918c50.05301 50.307007 78.172516 118.53793 78.172516 189.68277l0 0c0 148.15149 -119.49414 268.25198 -266.89764 268.25198l0 0c-147.4035 0 -266.89764 -120.100494 -266.89764 -268.25198z" fill-rule="evenodd"/><path stroke="#434343" stroke-width="4.0" stroke-linejoin="round" stroke-linecap="butt" d="m12.458068 281.62247l0 0c0 -148.15146 119.49414 -268.25195 266.89764 -268.25195l0 0c70.785645 0 138.67212 28.26218 188.72513 78.56918c50.05301 50.307007 78.172516 118.53793 78.172516 189.68277l0 0c0 148.15149 -119.49414 268.25198 -266.89764 268.25198l0 0c-147.4035 0 -266.89764 -120.100494 -266.89764 -268.25198z" fill-rule="evenodd"/></g><path fill="#000000" fill-opacity="0.0" d="m118.220474 89.66929l323.55908 0l0 383.90552l-323.55908 0z" fill-rule="evenodd"/><path fill="#434343" d="m260.23438 332.75952q0.3125 -18.59375 4.21875 -29.375q3.90625 -10.78125 15.9375 -23.90625l20.46875 -21.09375q13.125 -14.843735 13.125 -31.874985q0 -16.40625 -8.59375 -25.703125q-8.59375 -9.296875 -25.0 -9.296875q-15.9375 0 -25.625 8.4375q-9.6875 8.4375 -9.6875 22.65625l-28.90625 0q0.3125 -25.3125 18.046875 -40.859375q17.734375 -15.546875 46.171875 -15.546875q29.53125 0 46.015625 15.859375q16.484375 15.859375 16.484375 43.515625q0 27.34375 -25.3125 53.906235l-17.03125 16.875q-11.40625 12.65625 -11.40625 36.40625l-28.90625 0zm-1.25 49.53125q0 -7.03125 4.296875 -11.796875q4.296875 -4.765625 12.734375 -4.765625q8.4375 0 12.8125 4.765625q4.375 4.765625 4.375 11.796875q0 7.03125 -4.375 11.640625q-4.375 4.609375 -12.8125 4.609375q-8.4375 0 -12.734375 -4.609375q-4.296875 -4.609375 -4.296875 -11.640625z" fill-rule="nonzero"/></g></svg>