<svg version="1.1" viewBox="0.0 0.0 560.0 560.0" fill="none" stroke="none" stroke-linecap="square" stroke-miterlimit="10" xmlns:xlink="http://www.w3.org/1999/xlink" xmlns="http://www.w3.org/2000/svg"><clipPath id="p.0"><path d="m0 0l560.0 0l0 560.0l-560.0 0l0 -560.0z" clip-rule="nonzero"/></clipPath><g clip-path="url(#p.0)"><path fill="#000000" fill-opacity="0.0" d="m0 0l560.0 0l0 560.0l-560.0 0z" fill-rule="evenodd"/><g filter="url(#shadowFilter-p.1)"><use xlink:href="#p.1" transform="matrix(1.0 0.0 0.0 1.0 0.0 2.0)"/></g><defs><filter id="shadowFilter-p.1" filterUnits="userSpaceOnUse"><feGaussianBlur in="SourceAlpha" stdDeviation="2.0" result="blur"/><feComponentTransfer in="blur" color-interpolation-filters="sRGB"><feFuncR type="linear" slope="0" intercept="0.0"/><feFuncG type="linear" slope="0" intercept="0.0"/><feFuncB type="linear" slope="0" intercept="0.0"/><feFuncA type="linear" slope="0.5" intercept="0"/></feComponentTransfer></filter></defs><g id="p.1"><path fill="#06d6a0" d="m12.458068 281.62247l0 0c0 -148.15146 119.49414 -268.25195 266.89764 -268.25195l0 0c70.785645 0 138.67212 28.26218 188.72513 78.56918c50.05301 50.307007 78.172516 118.53793 78.172516 189.68277l0 0c0 148.15149 -119.49414 268.25198 -266.89764 268.25198l0 0c-147.4035 0 -266.89764 -120.100494 -266.89764 -268.25198z" fill-rule="evenodd"/></g><path fill="#036b50" d="m280.02875 162.34157l15.80072 0.2492981l28.342865 3.0121613l16.304596 4.0116425l8.528748 3.0121613l6.0191345 3.5107574l3.0115356 3.7646332l0.24899292 2.0058136l-0.24899292 2.0058289l-3.0115356 4.01622l-6.0191345 3.513031l-8.528748 3.0098877l-16.304596 4.0116425l-28.342865 2.7605743l-15.80072 0.500885l-16.05365 -0.500885l-28.091888 -2.7605743l-16.555557 -4.0116425l-8.277786 -3.0098877l-6.0191345 -3.513031l-3.2624817 -4.01622l-0.24900818 -2.0058289l0.24900818 -2.0058136l3.2624817 -3.7646332l6.0191345 -3.5107574l8.277786 -3.0121613l16.555557 -4.0116425l28.091888 -3.0121613l16.05365 -0.2492981zm0 -19.568771l-12.040222 0.2492981l-23.076614 1.5072327l-21.06894 3.0098724l-18.81224 4.2632294l-15.802673 5.269562l-12.793106 6.271347l-9.028702 7.0260925l-4.5133667 7.5246735l-0.5019226 4.0139313l0 19.81807l0 19.568756l0.5019226 4.0139313l4.5133667 7.5269775l9.028702 7.0238037l12.793106 6.271332l15.802673 5.269562l18.81224 4.265518l21.06894 3.0098877l23.076614 1.5049438l12.040222 0.2515564l12.038269 -0.2515564l22.825653 -1.5049438l21.319885 -3.0098877l18.56128 -4.265518l16.05365 -5.269562l12.791138 -6.271332l8.779724 -7.0238037l4.7643127 -7.5269775l0.50387573 -4.0139313l0 -19.568756l0 -19.81807l-0.50387573 -4.0139313l-4.7643127 -7.5246735l-8.779724 -7.0260925l-12.791138 -6.271347l-16.05365 -5.269562l-18.56128 -4.2632294l-21.319885 -3.0098724l-22.825653 -1.5072327l-12.038269 -0.2492981zm-113.37538 107.87521l-1.5037994 1.7565155l-1.0038452 2.0058289l-1.2528381 3.0098724l-0.5019226 3.012146l0 39.135254l0.5019226 4.013916l4.5133667 7.7785645l9.028702 7.0238037l12.793106 6.271332l15.802673 5.2673035l18.81224 4.265503l21.06894 3.0098877l23.076614 1.5072021l24.078491 0l22.825653 -1.5072021l21.319885 -3.0098877l18.56128 -4.265503l16.05365 -5.2673035l12.791138 -6.271332l8.779724 -7.0238037l4.7643127 -7.7785645l0.50387573 -4.013916l0 -39.135254l-0.50387573 -3.012146l-1.5037842 -3.0098724l-1.0038452 -2.0058289l-1.2528687 -1.7565155l-2.760559 3.0098724l-7.7758484 6.022049l-10.532501 5.267273l-12.793121 4.766388l-14.798828 3.7646484l-16.804565 3.261444l-27.842896 2.7583008l-20.065094 0.5031738l-20.317993 -0.5031738l-27.84291 -2.7583008l-16.553604 -3.261444l-15.049789 -3.7646484l-12.793121 -4.766388l-10.28154 -5.267273l-8.026825 -6.022049l-2.5095978 -3.0098724zm0 78.272766l-1.7547607 2.5089722l-2.2566833 4.7641296l-0.2509613 2.511261l0 39.38684l0.5019226 4.013916l4.5133667 7.5246887l9.028702 7.0260925l12.793106 6.271332l15.802673 5.269562l18.81224 4.2632446l21.06894 3.0098572l23.076614 1.5072327l12.040222 0.2492981l12.038269 -0.2492981l22.825653 -1.5072327l21.319885 -3.0098572l18.56128 -4.2632446l16.05365 -5.269562l12.791138 -6.271332l8.779724 -7.0260925l4.7643127 -7.5246887l0.50387573 -4.013916l0 -39.38684l-0.25289917 -2.511261l-2.2566833 -4.7641296l-1.7547913 -2.5089722l-2.760559 3.261444l-7.7758484 5.770447l-10.532501 5.2673035l-12.793121 4.766388l-14.798828 4.013916l-16.804565 3.0098877l-27.842896 3.0121765l-20.065094 0.500885l-20.317993 -0.500885l-27.84291 -3.0121765l-16.553604 -3.0098877l-15.049789 -4.013916l-12.793121 -4.766388l-10.28154 -5.2673035l-8.026825 -5.770447l-2.5095978 -3.261444z" fill-rule="evenodd"/></g></svg>