<svg version="1.1" viewBox="0.0 0.0 560.0 560.0" fill="none" stroke="none" stroke-linecap="square" stroke-miterlimit="10" xmlns:xlink="http://www.w3.org/1999/xlink" xmlns="http://www.w3.org/2000/svg"><clipPath id="p.0"><path d="m0 0l560.0 0l0 560.0l-560.0 0l0 -560.0z" clip-rule="nonzero"/></clipPath><g clip-path="url(#p.0)"><path fill="#000000" fill-opacity="0.0" d="m0 0l560.0 0l0 560.0l-560.0 0z" fill-rule="evenodd"/><g filter="url(#shadowFilter-p.1)"><use xlink:href="#p.1" transform="matrix(1.0 0.0 0.0 1.0 0.0 2.0)"/></g><defs><filter id="shadowFilter-p.1" filterUnits="userSpaceOnUse"><feGaussianBlur in="SourceAlpha" stdDeviation="2.0" result="blur"/><feComponentTransfer in="blur" color-interpolation-filters="sRGB"><feFuncR type="linear" slope="0" intercept="0.0"/><feFuncG type="linear" slope="0" intercept="0.0"/><feFuncB type="linear" slope="0" intercept="0.0"/><feFuncA type="linear" slope="0.5" intercept="0"/></feComponentTransfer></filter></defs><g id="p.1"><path fill="#ea526f" d="m19.137009 280.00314l0 0c0 -144.07239 116.79375 -260.86615 260.86615 -260.86615l0 0c69.186005 0 135.53833 27.484032 184.46024 76.40592c48.921875 48.921898 76.40588 115.27422 76.40588 184.4602l0 0c0 144.07239 -116.79373 260.86612 -260.86612 260.86612l0 0c-144.07239 0 -260.86615 -116.79373 -260.86615 -260.86612z" fill-rule="evenodd"/></g><path fill="#8d1129" d="m306.68912 186.70876l-2.5486145 0.20791626l-2.464447 0.66841125l-2.2973328 1.1697235l-2.005249 1.5460052l-1.7131042 1.9631348l-1.2947388 2.255249l-0.459198 1.2960052l-53.050537 159.1516l-0.37631226 1.2947388l-0.292099 2.5486145l0.25001526 2.464447l0.710495 2.380249l1.2118225 2.1723328l1.5447388 2.0052185l1.9223022 1.7539368l2.21315 1.5039368l1.2118225 0.62631226l1.2539062 0.58547974l2.589447 0.7513428l2.5065308 0.16708374l2.464447 -0.334198l2.255249 -0.96051025l2.0473022 -1.6289368l1.7539368 -2.255249l1.3789368 -2.9249268l0.50128174 -1.7960205l53.050537 -159.15161l0.37631226 -1.2947235l0.334198 -2.631546l-0.209198 -2.5486298l-0.71051025 -2.4644318l-1.1276245 -2.255249l-1.54599 -2.0473175l-1.9631348 -1.7131195l-2.255249 -1.3355408l-1.2947388 -0.460495l-1.29599 -0.41711426l-2.6723633 -0.29211426z" fill-rule="evenodd"/><path fill="#8d1129" d="m334.04926 223.63455l-2.589447 0.042099l-2.464447 0.543396l-2.3394165 1.0026093l-2.130249 1.4618378l-1.8802185 1.8789368l-0.75131226 1.1289062l-0.71051025 1.1697083l-0.96051025 2.464447l-0.45922852 2.547348l0.08291626 2.5486298l0.543396 2.5065308l1.0026245 2.3381653l1.4618225 2.1315155l1.8789368 1.8368378l1.1289062 0.794693l48.997986 31.579803l-48.997986 31.620605l-1.1289062 0.752594l-1.836853 1.8381348l-1.3789062 2.0881348l-0.96051025 2.2973633l-0.45922852 2.4644165l-0.04208374 2.548645l0.37631226 2.5473633l0.8342285 2.5486145l0.627594 1.2118225l0.668396 1.2105408l1.6289368 1.9631042l1.921051 1.4210205l2.1302185 0.96051025l2.4236145 0.45922852l2.5473633 0l2.7157288 -0.45922852l2.8407593 -0.9184265l1.4618225 -0.668396l66.29242 -42.73355l0.7092285 -0.50131226l1.2539062 -1.0855408l1.1276245 -1.211792l0.9605408 -1.2947388l0.793396 -1.4618225l0.58551025 -1.5039062l0.41711426 -1.5881348l0.209198 -1.6697388l0 -0.83551025l0 -0.83551025l-0.209198 -1.6710205l-0.41711426 -1.5881042l-0.62631226 -1.5447388l-0.752594 -1.4210205l-0.9605408 -1.3368225l-1.1276245 -1.2105408l-1.2539062 -1.086792l-0.7092285 -0.45922852l-66.29242 -42.73227l-1.2118225 -0.66841125l-2.464447 -0.961792l-2.5065308 -0.45921326z" fill-rule="evenodd"/><path fill="#8d1129" d="m225.94296 223.63455l-2.5473633 0.45921326l-2.4657135 0.961792l-1.1684418 0.66841125l-66.33453 42.73227l-0.710495 0.45922852l-1.2526398 1.086792l-1.128891 1.2105408l-0.9605255 1.3368225l-0.79341125 1.4210205l-0.62631226 1.5039062l-0.418396 1.5868225l-0.20793152 1.671051l0 0.83551025l0 0.83551025l0.20793152 1.6710205l0.418396 1.5868225l0.62631226 1.5039368l0.752594 1.4618225l0.9605255 1.3368225l1.1276245 1.211792l1.2526245 1.043457l0.710495 0.46047974l66.33455 42.774384l1.9210358 0.96051025l3.4249573 1.2118225l2.9249268 0.41711426l2.506546 -0.16711426l2.1302338 -0.7934265l1.8381195 -1.211792l1.5868378 -1.5447388l1.3368225 -1.8381348l0.62631226 -1.0026245l0.710495 -1.1697083l0.9184265 -2.5065308l0.418396 -2.5473633l-0.042099 -2.5486145l-0.501297 -2.464447l-1.0026093 -2.339447l-1.4197388 -2.0881348l-1.8802185 -1.8381348l-1.0855255 -0.752594l-49.041367 -31.620605l49.041367 -31.579803l1.0855255 -0.794693l1.9210358 -1.8368378l1.4210052 -2.1315155l1.0434418 -2.3381653l0.501297 -2.5065308l0.084198 -2.5486298l-0.45921326 -2.547348l-0.9605255 -2.464447l-0.66841125 -1.1697083l-0.794693 -1.1289062l-1.8381195 -1.8789368l-2.1302338 -1.4618378l-2.3802643 -1.0026093l-2.4644318 -0.543396l-2.5486298 -0.042099z" fill-rule="evenodd"/></g></svg>